<svg id="Group_13" data-name="Group 13" xmlns="http://www.w3.org/2000/svg" width="68.943" height="68.94" viewBox="0 0 68.943 68.94">
  <g id="Group_11" data-name="Group 11" transform="translate(0 0)">
    <path id="Path_11" data-name="Path 11" d="M360.564,289.387v43.557a12.691,12.691,0,0,1-12.692,12.691H304.313a12.691,12.691,0,0,1-12.692-12.691V289.387A12.692,12.692,0,0,1,304.313,276.7h43.559A12.692,12.692,0,0,1,360.564,289.387Z" transform="translate(-291.621 -276.696)" fill="#2d5943"/>
  </g>
  <g id="Group_12" data-name="Group 12" transform="translate(10.708 20.539)">
    <path id="Path_12" data-name="Path 12" d="M318.778,300.67h-3.487l-11.171,29.2h5.928l1.636-4.678h10.7l1.636,4.678h5.928Zm-5.226,19.216,3.487-9.955,3.487,9.955Z" transform="translate(-304.12 -300.67)" fill="#fff"/>
    <path id="Path_13" data-name="Path 13" d="M341.7,330.42a7.482,7.482,0,0,1-3.263-3.192,10.56,10.56,0,0,1-1.125-5.05v-2.349a11.887,11.887,0,0,1,1.074-5.281,7.486,7.486,0,0,1,3.133-3.333,10.086,10.086,0,0,1,4.969-1.145,7.944,7.944,0,0,1,4.678,1.366,8.41,8.41,0,0,1,2.962,3.966,17.291,17.291,0,0,1,1.014,6.275v1.366H340.886v-3.715h9.237l-.061-.481a4.854,4.854,0,0,0-1.134-2.791,3.169,3.169,0,0,0-2.44-.984,3.986,3.986,0,0,0-3.082,1.185,4.76,4.76,0,0,0-1.095,3.353v2.651a4.389,4.389,0,0,0,1.2,3.293,4.589,4.589,0,0,0,3.343,1.164,6.4,6.4,0,0,0,2.189-.392,6.651,6.651,0,0,0,1.968-1.115L354.6,328.4a11.979,11.979,0,0,1-3.654,2.3,10.926,10.926,0,0,1-4.1.814A11.185,11.185,0,0,1,341.7,330.42Z" transform="translate(-308.876 -302.017)" fill="#fff"/>
  </g>
</svg>
