<svg xmlns="http://www.w3.org/2000/svg" width="68.947" height="68.939" viewBox="0 0 68.947 68.939">
  <g id="Group_4" data-name="Group 4" transform="translate(0 0)">
    <g id="Group_2" data-name="Group 2" transform="translate(0)">
      <path id="Path_1" data-name="Path 1" d="M340.444,173.329a2.564,2.564,0,0,0-1.054-1.139,3.4,3.4,0,0,0-1.679-.394,2.9,2.9,0,0,0-2.4,1.062,4.6,4.6,0,0,0-.848,2.956v3.315a4.395,4.395,0,0,0,.848,2.887,2.954,2.954,0,0,0,2.4,1.028,3.4,3.4,0,0,0,1.679-.386,2.463,2.463,0,0,0,1.054-1.1,3.927,3.927,0,0,0,.36-1.748v-4.678A4.1,4.1,0,0,0,340.444,173.329Zm0,0a2.564,2.564,0,0,0-1.054-1.139,3.4,3.4,0,0,0-1.679-.394,2.9,2.9,0,0,0-2.4,1.062,4.6,4.6,0,0,0-.848,2.956v3.315a4.395,4.395,0,0,0,.848,2.887,2.954,2.954,0,0,0,2.4,1.028,3.4,3.4,0,0,0,1.679-.386,2.463,2.463,0,0,0,1.054-1.1,3.927,3.927,0,0,0,.36-1.748v-4.678A4.1,4.1,0,0,0,340.444,173.329Zm7.428-35.219H304.316a12.689,12.689,0,0,0-12.7,12.688v43.555a12.691,12.691,0,0,0,12.7,12.7h43.555a12.7,12.7,0,0,0,12.7-12.7V150.8A12.694,12.694,0,0,0,347.871,138.11Zm-26.523,49.732-5.894-9.955-5.834,9.955h-5.8l8.721-14.9-8.481-14.3h5.808l5.551,9.381,5.491-9.381h5.8l-8.379,14.324,8.824,14.872Zm24.964,0H340.8v-2.63a5.131,5.131,0,0,1-1.688,2,5.3,5.3,0,0,1-3.153.934A6.265,6.265,0,0,1,329.786,184a12.875,12.875,0,0,1-.822-4.866V175.8a13.155,13.155,0,0,1,.822-4.917,6.567,6.567,0,0,1,2.4-3.118,6.637,6.637,0,0,1,3.778-1.062,5.112,5.112,0,0,1,3.05.994,6.67,6.67,0,0,1,1.79,2V158.645h5.509ZM339.39,172.19a3.4,3.4,0,0,0-1.679-.394,2.9,2.9,0,0,0-2.4,1.062,4.6,4.6,0,0,0-.848,2.956v3.315a4.395,4.395,0,0,0,.848,2.887,2.954,2.954,0,0,0,2.4,1.028,3.4,3.4,0,0,0,1.679-.386,2.463,2.463,0,0,0,1.054-1.1,3.927,3.927,0,0,0,.36-1.748v-4.678a4.1,4.1,0,0,0-.36-1.808A2.564,2.564,0,0,0,339.39,172.19Z" transform="translate(-291.62 -138.11)" fill="#2d5943"/>
    </g>
    <g id="Group_3" data-name="Group 3" transform="translate(12.199 20.535)">
      <path id="Path_2" data-name="Path 2" d="M329.2,191.276h-5.808l-5.894-9.955-5.834,9.955h-5.8l8.721-14.9-8.481-14.3h5.808l5.551,9.381,5.491-9.381h5.8L320.373,176.4Z" transform="translate(-305.86 -162.08)" fill="#fff"/>
      <path id="Path_3" data-name="Path 3" d="M347.05,162.08v11.051a6.67,6.67,0,0,0-1.791-2,5.112,5.112,0,0,0-3.05-.994,6.637,6.637,0,0,0-3.778,1.062,6.566,6.566,0,0,0-2.4,3.118,13.155,13.155,0,0,0-.822,4.917v3.333a12.874,12.874,0,0,0,.822,4.866,6.265,6.265,0,0,0,6.177,4.146,5.3,5.3,0,0,0,3.153-.934,5.131,5.131,0,0,0,1.688-2v2.63h5.509v-29.2ZM346.69,185a2.462,2.462,0,0,1-1.054,1.1,3.4,3.4,0,0,1-1.679.386,2.954,2.954,0,0,1-2.4-1.028,4.4,4.4,0,0,1-.848-2.887v-3.315a4.6,4.6,0,0,1,.848-2.956,2.9,2.9,0,0,1,2.4-1.062,3.4,3.4,0,0,1,1.679.394,2.564,2.564,0,0,1,1.054,1.139,4.1,4.1,0,0,1,.36,1.808v4.678A3.927,3.927,0,0,1,346.69,185Z" transform="translate(-310.066 -162.08)" fill="#fff"/>
    </g>
  </g>
</svg>
