<svg id="Group_10" data-name="Group 10" xmlns="http://www.w3.org/2000/svg" width="68.942" height="68.94" viewBox="0 0 68.942 68.94">
  <g id="Group_8" data-name="Group 8" transform="translate(0 0)">
    <path id="Path_7" data-name="Path 7" d="M223.184,289.387v43.557a12.691,12.691,0,0,1-12.691,12.691H166.934a12.691,12.691,0,0,1-12.692-12.691V289.387A12.692,12.692,0,0,1,166.934,276.7h43.559A12.691,12.691,0,0,1,223.184,289.387Z" transform="translate(-154.242 -276.696)" fill="#2d5943"/>
  </g>
  <g id="Group_9" data-name="Group 9" transform="translate(6.064 20.419)">
    <path id="Path_8" data-name="Path 8" d="M174.853,330.375,161.32,318.97l13.533-11.385,3.132,3.172-9.959,8.172,9.959,8.272Z" transform="translate(-161.32 -301.541)" fill="#fff"/>
    <path id="Path_9" data-name="Path 9" d="M186.966,333.219h-4.758l14.015-32.689H201Z" transform="translate(-164.313 -300.53)" fill="#fff"/>
    <path id="Path_10" data-name="Path 10" d="M209.793,307.585l13.533,11.385-13.533,11.405-3.112-3.173,9.939-8.192-9.939-8.253Z" transform="translate(-167.82 -301.541)" fill="#fff"/>
  </g>
</svg>
