<svg id="Group_7" data-name="Group 7" xmlns="http://www.w3.org/2000/svg" width="68.948" height="68.939" viewBox="0 0 68.948 68.939">
  <g id="Group_5" data-name="Group 5" transform="translate(0 0)">
    <path id="Path_4" data-name="Path 4" d="M210.491,138.22H166.936a12.689,12.689,0,0,0-12.7,12.688v43.563a12.689,12.689,0,0,0,12.7,12.688h43.555a12.694,12.694,0,0,0,12.7-12.688V150.908A12.694,12.694,0,0,0,210.491,138.22Zm-20.612,49.637-1.636-4.678h-10.7l-1.636,4.678h-5.928l11.163-29.2h3.5l11.163,29.2ZM179.4,177.877h6.974l-3.487-9.955Z" transform="translate(-154.24 -138.22)" fill="#2d5943"/>
  </g>
  <g id="Group_6" data-name="Group 6" transform="translate(15.738 20.441)">
    <path id="Path_5" data-name="Path 5" d="M187.268,162.08h-3.5l-11.163,29.2h5.928l1.636-4.678h10.7l1.636,4.678h5.92ZM182.034,181.3l3.487-9.955,3.487,9.955Z" transform="translate(-172.61 -162.08)" fill="#fff"/>
    <path id="Path_6" data-name="Path 6" d="M206.151,162.083h5.5v5.5h-5.5Zm0,8.353h5.5v20.842h-5.5Z" transform="translate(-177.416 -162.08)" fill="#fff"/>
  </g>
</svg>
