<svg xmlns="http://www.w3.org/2000/svg" width="50.857" height="52.091" viewBox="0 0 50.857 52.091">
  <g id="Group_15" data-name="Group 15" transform="translate(-233.581 -142.635)">
    <path id="Path_14" data-name="Path 14" d="M318.163,200.185H294.814V182.023h23.349" transform="translate(-35.187 -22.426)" fill="none" stroke="#fefefe" stroke-miterlimit="10" stroke-width="2"/>
    <path id="Path_15" data-name="Path 15" d="M289.781,146.927l-12.415,12.419-12.419-12.419a25.062,25.062,0,0,1,24.835,0Z" transform="translate(-17.739 0)" fill="none" stroke="#fefefe" stroke-miterlimit="10" stroke-width="2"/>
    <path id="Path_16" data-name="Path 16" d="M259.626,182.385h23.349a25.049,25.049,0,1,1-35.768-30.832l12.419,12.419,12.415-12.419a25.138,25.138,0,0,1,10.934,12.67H259.626Z" transform="translate(0 -4.626)" fill="none" stroke="#fefefe" stroke-miterlimit="10" stroke-width="2"/>
    <line id="Line_4" data-name="Line 4" x1="0.064" y1="0.064" transform="translate(247.143 146.864)" fill="none" stroke="#fefefe" stroke-miterlimit="10" stroke-width="2"/>
    <line id="Line_5" data-name="Line 5" x1="0.064" y2="0.064" transform="translate(272.042 146.864)" fill="none" stroke="#fefefe" stroke-miterlimit="10" stroke-width="2"/>
    <path id="Path_17" data-name="Path 17" d="M274.048,182.027v18.04a7.389,7.389,0,0,1-14.779,0" transform="translate(-14.422 -22.428)" fill="none" stroke="#fefefe" stroke-miterlimit="10" stroke-width="2"/>
    <line id="Line_6" data-name="Line 6" x1="0.103" transform="translate(282.976 159.597)" fill="none" stroke="#fefefe" stroke-miterlimit="10" stroke-width="2"/>
    <line id="Line_7" data-name="Line 7" x1="0.103" transform="translate(282.976 177.759)" fill="none" stroke="#fefefe" stroke-miterlimit="10" stroke-width="2"/>
    <line id="Line_8" data-name="Line 8" x2="23.349" transform="translate(259.626 168.678)" fill="none" stroke="#fefefe" stroke-miterlimit="10" stroke-width="2"/>
    <circle id="Ellipse_6" data-name="Ellipse 6" cx="9.081" cy="9.081" r="9.081" transform="translate(250.544 159.599)" fill="none" stroke="#fefefe" stroke-miterlimit="10" stroke-width="2"/>
  </g>
</svg>
